# xmcd
#
# Track frame offsets: 
#        300
#        21727
#        34759
#        52365
#        74066
#        90696
#        111163
#        130054
#
# Disc length: 2046 seconds
#
# Revision: 0
# Processed by: cddbd v1.5.2PL0 Copyright (c) Steve Scherf et al.
# Submitted via: ExactAudioCopy v0.95b4
#
DISCID=7d07fa08
DTITLE=Didier Maruani - Space opera
DYEAR=1987
DGENRE=Instrumental
TTITLE0=Space opera part1
TTITLE1=Space opera part2
TTITLE2=Space opera part3
TTITLE3=Space opera part4
TTITLE4=Space opera part5
TTITLE5=Space opera part6
TTITLE6=Space opera part7
TTITLE7=Space opera part8
EXTD=
EXTT0=
EXTT1=
EXTT2=
EXTT3=
EXTT4=
EXTT5=
EXTT6=
EXTT7=
PLAYORDER=
